<svg width="349" height="357" viewBox="0 0 349 357" fill="none" xmlns="http://www.w3.org/2000/svg">
    <g style="mix-blend-mode:soft-light" opacity="0.16">
        <path
            d="M128.798 133.12C62.2539 133.12 8.30952 187.132 8.30952 253.759C8.30952 262.661 9.27253 271.338 11.0999 279.691C3.9524 262.77 0 244.167 0 224.639C0 146.524 63.2451 83.1998 141.262 83.1998C219.279 83.1998 282.524 146.524 282.524 224.639C282.524 285.164 244.555 336.81 191.166 357C226.005 335.855 249.286 297.529 249.286 253.759C249.286 187.132 195.341 133.12 128.798 133.12Z"
            fill="#FEFEFE" />
        <path
            d="M153.726 49.9199C243.216 49.9199 315.762 122.557 315.762 212.159C315.762 250.733 302.317 286.163 279.863 314.007C321.87 282.101 349 231.583 349 174.72C349 78.2246 270.874 0 174.5 0C83.5606 0 8.86878 69.6515 0.734513 158.581C22.8365 95.3058 82.9878 49.9199 153.726 49.9199Z"
            fill="#FEFEFE" />
        <path fill-rule="evenodd" clip-rule="evenodd"
            d="M216.048 253.759C216.048 302.007 176.984 341.119 128.798 341.119C80.6108 341.119 41.5476 302.007 41.5476 253.759C41.5476 205.512 80.6108 166.4 128.798 166.4C176.984 166.4 216.048 205.512 216.048 253.759ZM128.798 307.839C158.628 307.839 182.809 283.627 182.809 253.759C182.809 223.892 158.628 199.679 128.798 199.679C98.9677 199.679 74.7857 223.892 74.7857 253.759C74.7857 283.627 98.9677 307.839 128.798 307.839Z"
            fill="#FEFEFE" />
    </g>
</svg>