<svg width="119" height="116" viewBox="0 0 119 116" fill="none" xmlns="http://www.w3.org/2000/svg">
    <path
        d="M29.7495 70.25C29.7495 67.2124 32.2119 64.75 35.2495 64.75C38.287 64.75 40.7495 67.2124 40.7495 70.25M29.7495 70.25C29.7495 67.3852 27.5591 65.0319 24.7618 64.7735M29.7495 70.25L39.7497 115.045M62.7495 70.25C62.7495 67.2124 60.287 64.75 57.2495 64.75C54.2119 64.75 51.7495 67.2124 51.7495 70.25M62.7495 70.25C62.7495 67.2124 65.2119 64.75 68.2495 64.75C71.287 64.75 73.7495 67.2124 73.7495 70.25M62.7495 70.25V115.25M51.7495 70.25C51.7495 67.2124 49.287 64.75 46.2495 64.75C43.2119 64.75 40.7495 67.2124 40.7495 70.25M51.7495 70.25L55.2497 115.25M95.7495 70.25C95.7495 67.2124 93.287 64.75 90.2495 64.75C87.2119 64.75 84.7495 67.2124 84.7495 70.25M95.7495 70.25C95.7495 67.3852 97.9398 65.0319 100.737 64.7735M95.7495 70.25L86.2979 114.947M84.7495 70.25C84.7495 67.2124 82.287 64.75 79.2495 64.75C76.2119 64.75 73.7495 67.2124 73.7495 70.25M84.7495 70.25L78.2497 115.25M40.7495 70.25L47.2497 115.25M73.7495 70.25L70.7495 115.25M70.8211 28.609C70.7738 28.9827 70.7495 29.3635 70.7495 29.75C70.7495 34.7206 74.7789 38.75 79.7495 38.75C82.33 38.75 84.6568 37.664 86.2979 35.924M70.8211 28.609C71.3818 24.1772 75.1654 20.75 79.7495 20.75C82.33 20.75 84.6568 21.836 86.2979 23.576M70.8211 28.609C68.2197 28.0463 65.5192 27.75 62.7495 27.75C42.0891 27.75 25.2797 44.238 24.7618 64.7735M86.2979 35.924C87.8178 34.3125 88.7495 32.14 88.7495 29.75C88.7495 27.36 87.8178 25.1875 86.2979 23.576M86.2979 35.924C94.8631 42.6957 100.442 53.0782 100.737 64.7735M24.7618 64.7735C24.5931 64.758 24.4222 64.75 24.2495 64.75C21.8754 64.75 19.8526 66.2542 19.0822 68.3616C18.6427 69.5639 18.9031 70.8785 19.2071 72.1221L26.7671 103.049C28.3116 109.368 33.489 114.034 39.7497 115.045M100.737 64.7735C100.906 64.758 101.077 64.75 101.249 64.75C103.624 64.75 105.646 66.2542 106.417 68.3616C106.856 69.5639 106.596 70.8785 106.292 72.1221L98.7319 103.049C97.2327 109.182 92.3109 113.758 86.2979 114.947M39.7497 115.045C40.5857 115.18 41.4409 115.25 42.3094 115.25H47.2497M47.2497 115.25H55.2497M55.2497 115.25H62.7495M62.7495 115.25H70.7495M70.7495 115.25H78.2497M78.2497 115.25H83.1895C84.249 115.25 85.2888 115.146 86.2979 114.947M86.2979 23.576C86.9485 22.3007 89.2497 20.05 93.2497 21.25M53.7497 57.75C54.2497 56.5833 56.3497 54.25 60.7497 54.25C65.1497 54.25 67.5829 56.5833 68.2495 57.75M5.24972 53.75C4.80759 53.75 4.36547 53.9455 4.00977 54.25M5.24972 53.75C5.78181 53.75 6.3139 53.8916 6.69534 54.25M5.24972 53.75V50.75M3.24972 55.75C3.24972 55.1921 3.56094 54.6343 4.00977 54.25M3.24972 55.75C3.24972 56.3079 3.56094 56.8657 4.00977 57.25M3.24972 55.75H0.25M5.24972 57.75C5.78181 57.75 6.3139 57.6084 6.69534 57.25M5.24972 57.75V60.75M5.24972 57.75C4.80759 57.75 4.36547 57.5545 4.00977 57.25M7.24972 55.75C7.24972 55.0481 7.03078 54.5652 6.69534 54.25M7.24972 55.75H10.25M7.24972 55.75C7.24972 56.4519 7.03078 56.9348 6.69534 57.25M4.00977 54.25L1.50977 51.75M6.69534 54.25L9.19534 51.75M6.69534 57.25L9.19534 59.75M4.00977 57.25L1.50977 59.75M55.7497 44.25C54.7497 44.25 53.7497 45.25 53.7497 46.25C53.7497 47.25 54.7497 48.25 55.7497 48.25C56.7497 48.25 57.7497 47.75 57.7497 46.25C57.7497 44.75 56.7497 44.25 55.7497 44.25ZM67.7497 44.25C66.7497 44.25 65.7497 45.25 65.7497 46.25C65.7497 47.25 66.7497 48.25 67.7497 48.25C68.7497 48.25 69.7497 47.75 69.7497 46.25C69.7497 44.75 68.7497 44.25 67.7497 44.25ZM115.75 53.75C114.75 53.75 113.75 54.75 113.75 55.75C113.75 56.75 114.75 57.75 115.75 57.75C116.75 57.75 117.75 57.25 117.75 55.75C117.75 54.25 116.75 53.75 115.75 53.75ZM88.7495 0.75C87.7495 0.75 86.7495 1.75 86.7495 2.75C86.7495 3.75 87.7495 4.75 88.7495 4.75C89.7495 4.75 90.7495 4.25 90.7495 2.75C90.7495 1.25 89.7495 0.75 88.7495 0.75Z"
        stroke="#828282" />
</svg>