<svg xmlns="http://www.w3.org/2000/svg" width="363" height="99" viewBox="0 0 363 99">
<g>
<path d="M 301.43 69.50 L 293.73 80.00 L 285.74 80.00 C279.49,80.00 277.97,79.73 278.75,78.75 C288.01,67.10 301.06,48.61 300.70,47.65 C300.43,46.97 297.57,43.05 294.33,38.95 C285.95,28.33 279.00,19.06 279.00,18.49 C279.00,18.22 282.53,18.00 286.84,18.00 L 294.68 18.00 L 300.34 25.75 C303.46,30.01 307.06,34.77 308.36,36.33 L 310.71 39.16 L 313.81 34.83 C315.51,32.45 319.01,27.69 321.58,24.25 L 326.26 18.00 L 342.24 18.00 L 339.39 21.75 C337.82,23.81 332.59,30.60 327.77,36.84 C322.63,43.48 319.29,48.66 319.71,49.34 C320.10,49.98 325.28,56.91 331.21,64.73 C337.15,72.56 342.00,79.20 342.00,79.48 C342.00,79.77 338.51,79.99 334.25,79.99 L 326.50 79.98 L 318.77 69.49 C314.52,63.72 310.61,59.00 310.09,59.00 C309.56,59.00 305.67,63.72 301.43,69.50 Z" fill="rgb(34,145,69)"/>
<path d="M 51.96 78.72 C43.17,82.29 28.94,81.56 20.17,77.09 C14.20,74.04 13.74,73.03 16.14,68.19 C17.28,65.88 18.34,64.00 18.49,64.00 C18.65,64.00 21.83,65.43 25.57,67.18 C37.98,72.99 50.00,71.20 50.00,63.55 C50.00,59.10 48.11,57.36 41.19,55.44 C23.16,50.41 20.01,48.73 16.96,42.42 C12.86,33.95 16.37,24.75 25.47,20.06 C29.73,17.87 31.75,17.50 39.47,17.51 C48.75,17.51 57.65,19.67 59.98,22.48 C61.71,24.56 57.51,32.43 55.19,31.46 C47.03,28.07 37.66,27.04 32.55,28.98 C28.93,30.36 27.47,34.55 29.53,37.68 C31.31,40.40 33.18,41.24 43.93,44.11 C58.47,48.00 63.43,52.72 63.43,62.67 C63.43,70.09 59.43,75.68 51.96,78.72 ZM 260.50 78.65 C250.06,83.52 235.27,80.85 228.56,72.89 C224.32,67.86 223.00,63.86 223.00,55.99 C223.00,44.27 228.65,36.61 239.67,33.41 C256.04,28.65 269.91,38.65 269.98,55.25 L 270.00 61.00 L 234.80 61.00 L 236.82 64.25 C240.86,70.75 248.98,72.64 256.76,68.88 L 261.15 66.75 L 264.55 70.05 C268.62,73.99 268.09,75.11 260.50,78.65 ZM 108.80 78.13 C103.24,81.00 90.40,81.70 84.52,79.46 C68.85,73.49 64.21,52.77 75.68,40.01 C80.14,35.05 86.59,32.00 92.63,32.00 C98.65,32.00 105.38,34.35 109.17,37.78 C114.13,42.25 116.10,46.87 116.33,54.50 L 116.50 60.50 L 99.25 60.77 C89.76,60.92 82.00,61.43 82.00,61.89 C82.00,63.55 86.24,68.07 89.27,69.64 C93.00,71.57 100.11,70.99 104.65,68.39 C107.70,66.63 107.72,66.64 111.00,69.71 C115.03,73.46 114.59,75.14 108.80,78.13 ZM 190.66 79.71 C189.44,80.46 177.96,80.95 175.29,80.36 C171.79,79.59 167.30,74.74 166.11,70.44 C165.50,68.27 165.01,61.47 165.01,55.31 L 165.00 44.13 L 161.75 43.81 C158.64,43.51 158.49,43.30 158.20,38.82 C157.90,34.18 157.93,34.13 161.20,33.82 C164.47,33.50 164.50,33.44 165.00,27.50 L 165.50 21.50 L 177.90 20.91 L 178.50 33.50 L 183.50 33.58 C187.94,33.64 189.80,33.62 190.52,34.51 C191.04,35.15 190.97,36.27 190.84,38.25 C190.83,38.41 190.82,38.58 190.80,38.75 L 190.50 43.50 L 178.00 44.10 L 178.00 56.02 C178.00,67.48 178.10,68.02 180.37,69.51 C182.05,70.61 183.92,70.88 186.76,70.42 L 190.78 69.78 L 191.15 74.48 C191.36,77.06 191.14,79.42 190.66,79.71 ZM 153.09 79.31 C152.47,79.93 148.93,80.58 145.23,80.75 C139.76,81.01 137.83,80.66 134.90,78.92 C128.75,75.26 128.00,72.94 128.00,57.66 L 128.00 44.12 L 124.25 43.81 L 120.50 43.50 L 119.90 33.00 L 128.00 33.00 L 128.00 21.00 L 140.00 21.00 L 140.00 33.00 L 153.00 33.00 L 153.00 44.00 L 140.00 44.00 L 140.00 55.31 C140.00,65.47 140.22,66.86 142.13,68.91 C143.94,70.85 144.89,71.09 148.53,70.55 L 152.81 69.91 L 153.51 74.05 C153.95,76.68 153.80,78.60 153.09,79.31 ZM 213.00 15.00 L 213.00 80.00 L 201.00 80.00 L 201.00 15.00 ZM 82.00 50.72 C82.00,51.69 84.85,52.00 93.57,52.00 C105.09,52.00 105.13,51.99 104.49,49.75 C103.37,45.86 98.37,42.00 94.43,42.00 C88.62,42.00 82.00,46.65 82.00,50.72 ZM 236.02 50.25 C236.00,51.81 237.18,52.00 247.00,52.00 C258.80,52.00 259.18,51.80 256.33,46.99 C252.53,40.54 242.76,40.21 237.77,46.37 C236.82,47.54 236.03,49.29 236.02,50.25 Z" fill="rgb(26,41,76)"/>
<path d="M 0.00 49.50 L 0.00 0.00 L 181.50 0.00 L 363.00 0.00 L 363.00 49.50 L 363.00 99.00 L 181.50 99.00 L 0.00 99.00 L 0.00 49.50 ZM 51.96 78.72 C59.43,75.68 63.43,70.09 63.43,62.67 C63.43,52.72 58.47,48.00 43.93,44.11 C33.18,41.24 31.31,40.40 29.53,37.68 C27.47,34.55 28.93,30.36 32.55,28.98 C37.66,27.04 47.03,28.07 55.19,31.46 C57.51,32.43 61.71,24.56 59.98,22.48 C57.65,19.67 48.75,17.51 39.47,17.51 C31.75,17.50 29.73,17.87 25.47,20.06 C16.37,24.75 12.86,33.95 16.96,42.42 C20.01,48.73 23.16,50.41 41.19,55.44 C48.11,57.36 50.00,59.10 50.00,63.55 C50.00,71.20 37.98,72.99 25.57,67.18 C21.83,65.43 18.65,64.00 18.49,64.00 C18.34,64.00 17.28,65.88 16.14,68.19 C13.74,73.03 14.20,74.04 20.17,77.09 C28.94,81.56 43.17,82.29 51.96,78.72 ZM 108.80 78.13 C114.59,75.14 115.03,73.46 111.00,69.71 C107.72,66.64 107.70,66.63 104.65,68.39 C100.11,70.99 93.00,71.57 89.27,69.64 C86.24,68.07 82.00,63.55 82.00,61.89 C82.00,61.43 89.76,60.92 99.25,60.77 L 116.50 60.50 L 116.33 54.50 C116.10,46.87 114.13,42.25 109.17,37.78 C105.38,34.35 98.65,32.00 92.63,32.00 C86.59,32.00 80.14,35.05 75.68,40.01 C64.21,52.77 68.85,73.49 84.52,79.46 C90.40,81.70 103.24,81.00 108.80,78.13 ZM 153.09 79.31 C153.80,78.60 153.95,76.68 153.51,74.05 L 152.81 69.91 L 148.53 70.55 C144.89,71.09 143.94,70.85 142.13,68.91 C140.22,66.86 140.00,65.47 140.00,55.31 L 140.00 44.00 L 146.50 44.00 L 153.00 44.00 L 153.00 38.50 L 153.00 33.00 L 146.50 33.00 L 140.00 33.00 L 140.00 27.00 L 140.00 21.00 L 134.00 21.00 L 128.00 21.00 L 128.00 27.00 L 128.00 33.00 L 123.95 33.00 L 119.90 33.00 L 120.20 38.25 L 120.50 43.50 L 124.25 43.81 L 128.00 44.12 L 128.00 57.66 C128.00,72.94 128.75,75.26 134.90,78.92 C137.83,80.66 139.76,81.01 145.23,80.75 C148.93,80.58 152.47,79.93 153.09,79.31 ZM 190.66 79.71 C191.14,79.42 191.36,77.06 191.15,74.48 L 190.78 69.78 L 186.76 70.42 C183.92,70.88 182.05,70.61 180.37,69.51 C178.10,68.02 178.00,67.48 178.00,56.02 L 178.00 44.10 L 184.25 43.80 L 190.50 43.50 L 190.80 38.75 C191.14,33.51 191.40,33.70 183.50,33.58 L 178.50 33.50 L 178.20 27.20 L 177.90 20.91 L 171.70 21.20 L 165.50 21.50 L 165.00 27.50 C164.50,33.44 164.47,33.50 161.20,33.82 C157.93,34.13 157.90,34.18 158.20,38.82 C158.49,43.30 158.64,43.51 161.75,43.81 L 165.00 44.13 L 165.01 55.31 C165.01,61.47 165.50,68.27 166.11,70.44 C167.30,74.74 171.79,79.59 175.29,80.36 C177.96,80.95 189.44,80.46 190.66,79.71 ZM 260.50 78.65 C268.09,75.11 268.62,73.99 264.55,70.05 L 261.15 66.75 L 256.76 68.88 C248.98,72.64 240.86,70.75 236.82,64.25 L 234.80 61.00 L 252.40 61.00 L 270.00 61.00 L 269.98 55.25 C269.91,38.65 256.04,28.65 239.67,33.41 C228.65,36.61 223.00,44.27 223.00,55.99 C223.00,63.86 224.32,67.86 228.56,72.89 C235.27,80.85 250.06,83.52 260.50,78.65 ZM 213.00 47.50 L 213.00 15.00 L 207.00 15.00 L 201.00 15.00 L 201.00 47.50 L 201.00 80.00 L 207.00 80.00 L 213.00 80.00 L 213.00 47.50 ZM 301.43 69.50 C305.67,63.72 309.56,59.00 310.09,59.00 C310.61,59.00 314.52,63.72 318.77,69.49 L 326.50 79.98 L 334.25 79.99 C338.51,79.99 342.00,79.77 342.00,79.48 C342.00,79.20 337.15,72.56 331.21,64.73 C325.28,56.91 320.10,49.98 319.71,49.34 C319.29,48.66 322.63,43.48 327.77,36.84 C332.59,30.60 337.82,23.81 339.39,21.75 L 342.24 18.00 L 334.25 18.00 L 326.26 18.00 L 321.58 24.25 C319.01,27.69 315.51,32.45 313.81,34.83 L 310.71 39.16 L 308.36 36.33 C307.06,34.77 303.46,30.01 300.34,25.75 L 294.68 18.00 L 286.84 18.00 C282.53,18.00 279.00,18.22 279.00,18.49 C279.00,19.06 285.95,28.33 294.33,38.95 C297.57,43.05 300.43,46.97 300.70,47.65 C301.06,48.61 288.01,67.10 278.75,78.75 C277.97,79.73 279.49,80.00 285.74,80.00 L 293.73 80.00 L 301.43 69.50 ZM 82.00 50.72 C82.00,46.65 88.62,42.00 94.43,42.00 C98.37,42.00 103.37,45.86 104.49,49.75 C105.13,51.99 105.09,52.00 93.57,52.00 C84.85,52.00 82.00,51.69 82.00,50.72 ZM 236.02 50.25 C236.03,49.29 236.82,47.54 237.77,46.37 C242.76,40.21 252.53,40.54 256.33,46.99 C259.18,51.80 258.80,52.00 247.00,52.00 C237.18,52.00 236.00,51.81 236.02,50.25 Z" fill="rgb(250,252,251)"/>
</g>
</svg>