<svg width="310" height="60" viewBox="0 0 310 60" fill="none" xmlns="http://www.w3.org/2000/svg">
<path d="M21.7313 22.373C10.5038 22.373 1.40202 31.4507 1.40202 42.6486C1.40202 44.1448 1.5645 45.6031 1.87283 47.007C0.666867 44.1631 0 41.0365 0 37.7545C0 24.626 10.671 13.9832 23.8344 13.9832C36.9977 13.9832 47.6687 24.626 47.6687 37.7545C47.6687 47.9267 41.2625 56.6067 32.2544 60C38.1326 56.4462 42.0606 50.0049 42.0606 42.6486C42.0606 31.4507 32.9589 22.373 21.7313 22.373Z" fill="black"/>
<path d="M25.9374 8.38989C41.0365 8.38989 53.2768 20.5978 53.2768 35.657C53.2768 42.14 51.0083 48.0946 47.2198 52.7742C54.3074 47.412 58.8849 38.9215 58.8849 29.3646C58.8849 13.147 45.703 0 29.4424 0C14.0987 0 1.49638 11.7061 0.12393 26.6523C3.85308 16.0178 14.0021 8.38989 25.9374 8.38989Z" fill="black"/>
<path fill-rule="evenodd" clip-rule="evenodd" d="M36.4525 42.6486C36.4525 50.7574 29.8616 57.3309 21.7313 57.3309C13.601 57.3309 7.0101 50.7574 7.0101 42.6486C7.0101 34.5398 13.601 27.9663 21.7313 27.9663C29.8616 27.9663 36.4525 34.5398 36.4525 42.6486ZM21.7313 51.7377C26.7644 51.7377 30.8445 47.6684 30.8445 42.6486C30.8445 37.6289 26.7644 33.5596 21.7313 33.5596C16.6983 33.5596 12.6182 37.6289 12.6182 42.6486C12.6182 47.6684 16.6983 51.7377 21.7313 51.7377Z" fill="black"/>
<path fill-rule="evenodd" clip-rule="evenodd" d="M85.5231 18.8774C80.8772 18.8774 77.111 22.6337 77.111 27.2673C77.111 31.9009 80.8772 35.6572 85.5231 35.6572C90.169 35.6572 93.9353 31.9009 93.9353 27.2673C93.9353 22.6337 90.169 18.8774 85.5231 18.8774ZM71.5029 27.2673C71.5029 19.5446 77.78 13.2841 85.5231 13.2841C93.2663 13.2841 99.5433 19.5446 99.5433 27.2673C99.5433 34.99 93.2663 41.2504 85.5231 41.2504C77.78 41.2504 71.5029 34.99 71.5029 27.2673ZM180.16 27.306V41.2504H174.551V14.6824H180.16V15.384L189.974 33.8089L199.788 15.384V14.6824H205.396V41.2504H199.788V27.306L192.36 41.2504H187.587L180.16 27.306ZM295.826 14.6824H301.434V20.2757H308.444V25.869H301.434V34.958C301.434 35.434 301.602 35.9481 301.932 36.3104C302.202 36.6064 302.807 37.0555 304.238 37.0555C304.603 37.0555 305.116 36.9443 305.696 36.7201C306.261 36.5017 306.71 36.2458 306.889 36.1269L310 40.7807C309.478 41.1279 308.665 41.5712 307.723 41.9354C306.795 42.2939 305.557 42.6487 304.238 42.6487C301.464 42.6487 299.265 41.6995 297.782 40.0728C296.36 38.5125 295.826 36.5795 295.826 34.958V25.869H293.022V20.2757H295.826V14.6824ZM114.966 25.869C111.868 25.869 109.357 28.3731 109.357 31.4622C109.357 34.5513 111.868 37.0555 114.966 37.0555C118.063 37.0555 120.574 34.5513 120.574 31.4622C120.574 28.3731 118.063 25.869 114.966 25.869ZM109.357 41.1522C111.007 42.104 112.923 42.6487 114.966 42.6487C121.16 42.6487 126.182 37.6404 126.182 31.4622C126.182 25.2841 121.16 20.2757 114.966 20.2757C112.923 20.2757 111.007 20.8204 109.357 21.7723V21.674H103.749V48.242H109.357V41.1522ZM133.445 33.5597H147.913V30.7631C147.913 28.2435 147.286 25.6255 145.62 23.5811C143.883 21.448 141.286 20.2757 138.099 20.2757C135.091 20.2757 132.471 21.3156 130.576 23.2836C128.711 25.2202 127.765 27.8256 127.608 30.6053C127.592 30.8886 127.584 31.1744 127.584 31.4622C127.584 34.424 128.435 37.2336 130.301 39.3428C132.205 41.4954 134.932 42.6487 138.099 42.6487C143.444 42.6487 146.625 38.8866 147.617 36.9079L142.601 34.4065C142.191 35.2244 140.605 37.0555 138.099 37.0555C136.358 37.0555 135.23 36.461 134.506 35.6421C134.055 35.1324 133.678 34.4399 133.445 33.5597ZM134.62 27.1584C134.4 27.3873 134.195 27.6563 134.014 27.9664H141.787C141.638 27.6331 141.462 27.3467 141.268 27.1081C140.727 26.4445 139.819 25.869 138.099 25.869C136.436 25.869 135.339 26.4122 134.62 27.1584ZM161.232 25.869C158.909 25.869 157.026 27.7471 157.026 30.0639V41.2504H151.418V20.2757H156.174V21.674C157.651 20.7863 159.382 20.2757 161.232 20.2757C166.652 20.2757 171.046 24.658 171.046 30.0639V41.2504H165.438V30.0639C165.438 27.7471 163.555 25.869 161.232 25.869ZM219.416 25.869C216.319 25.869 213.808 28.3731 213.808 31.4622C213.808 34.5513 216.319 37.0555 219.416 37.0555C222.513 37.0555 225.024 34.5513 225.024 31.4622C225.024 28.3731 222.513 25.869 219.416 25.869ZM225.024 41.1522C223.374 42.104 221.459 42.6487 219.416 42.6487C213.222 42.6487 208.2 37.6404 208.2 31.4622C208.2 25.2841 213.222 20.2757 219.416 20.2757C221.459 20.2757 223.374 20.8204 225.024 21.7723V20.2757H230.632V41.9496H225.024V41.1522ZM245.354 25.869C242.256 25.869 239.745 28.3731 239.745 31.4622V41.9496H234.137V20.2757H239.745V21.7723C241.395 20.8204 243.311 20.2757 245.354 20.2757H247.457V25.869H245.354ZM276.432 33.5597H290.9V30.7631C290.9 28.2435 290.272 25.6255 288.607 23.5811C286.869 21.448 284.273 20.2757 281.085 20.2757C278.078 20.2757 275.458 21.3156 273.562 23.2836C271.697 25.2202 270.752 27.8256 270.594 30.6053C270.578 30.8886 270.57 31.1743 270.57 31.4622C270.57 34.424 271.421 37.2336 273.287 39.3428C275.192 41.4954 277.919 42.6487 281.085 42.6487C286.43 42.6487 289.612 38.8866 290.604 36.9079L285.588 34.4065C285.178 35.2244 283.592 37.0555 281.085 37.0555C279.345 37.0555 278.217 36.461 277.492 35.6421C277.041 35.1324 276.664 34.4399 276.432 33.5597ZM277.607 27.1584C277.386 27.3873 277.182 27.6563 277 27.9664H284.773C284.624 27.6331 284.449 27.3467 284.254 27.1081C283.714 26.4445 282.805 25.869 281.085 25.869C279.423 25.869 278.325 26.4122 277.607 27.1584Z" fill="black"/>
<path d="M250.962 12.585V41.2504H256.57V34.0189L263.82 41.2504H271.751L261.236 30.7631L271.751 20.2757H263.82L256.57 27.5072V12.585H250.962Z" fill="black"/>
</svg>
